<svg xmlns="http://www.w3.org/2000/svg" width="1200" height="700" viewBox="0 0 1200 700">
<defs>
  <linearGradient id="paper" x1="0" x2="0" y1="0" y2="1">
    <stop offset="0%" stop-color="#FFF0EE"/>
    <stop offset="100%" stop-color="#F4E8E2"/>
  </linearGradient>
  <linearGradient id="gold" x1="0" x2="1" y1="0" y2="1">
    <stop offset="0%" stop-color="#b48d44"/>
    <stop offset="50%" stop-color="#d8bb73"/>
    <stop offset="100%" stop-color="#9b7437"/>
  </linearGradient>
  <filter id="paperNoise">
    <feTurbulence type="fractalNoise" baseFrequency="0.8" numOctaves="2" seed="2" result="noise"/>
    <feColorMatrix in="noise" type="saturate" values="0"/>
    <feComponentTransfer>
      <feFuncA type="table" tableValues="0 0 .04 .06"/>
    </feComponentTransfer>
  </filter>
  <g id="flower5">
    <ellipse cx="0" cy="-10" rx="7" ry="12" fill="#d88f9c" opacity=".92"/>
    <ellipse cx="9.5" cy="-3" rx="7" ry="12" transform="rotate(72 9.5 -3)" fill="#e2a4b0" opacity=".92"/>
    <ellipse cx="6" cy="8" rx="7" ry="12" transform="rotate(144 6 8)" fill="#cf7d8d" opacity=".92"/>
    <ellipse cx="-6" cy="8" rx="7" ry="12" transform="rotate(216 -6 8)" fill="#e2a4b0" opacity=".92"/>
    <ellipse cx="-9.5" cy="-3" rx="7" ry="12" transform="rotate(288 -9.5 -3)" fill="#d88f9c" opacity=".92"/>
    <circle cx="0" cy="0" r="4.3" fill="#f1d48b"/>
  </g>
  <g id="leafPair">
    <path d="M0,0 C18,-10 30,-4 34,8 C20,10 7,8 0,0Z" fill="#9da572"/>
    <path d="M0,0 C17,7 20,21 15,31 C6,24 0,12 0,0Z" fill="#b3bb86"/>
  </g>
  <g id="bud">
    <ellipse cx="0" cy="0" rx="5" ry="8" fill="#d78d9b"/>
    <path d="M-2,5 C0,11 1,15 0,20" stroke="#8d8a52" stroke-width="2" fill="none"/>
  </g>
</defs>
<rect x="0" y="0" width="1200" height="700" fill="none"/>
<rect x="90" y="90" width="1020" height="520" fill="#f5ead5" stroke="#c39a58" stroke-width="6"/>
<rect x="100" y="100" width="1000" height="500" fill="none" stroke="#ddc78f" stroke-width="3"/>
<rect x="112" y="112" width="976" height="476" fill="none" stroke="#c39a58" stroke-width="2"/>
<rect x="124" y="124" width="952" height="452" fill="url(#paper)"/>
<rect x="124" y="124" width="952" height="452" fill="#000" opacity=".06" filter="url(#paperNoise)"/>
<path d="M 142 572 L 142 384 C 142 384 144 354 178 332 C 202 328 205 302 228 299 C 250 296 250 274 274 271 C 297 268 302 246 328 246 C 356 246 364 226 394 226 C 434 226 552.0 168 600.0 150 C 648.0 168 766.0 226 600.0 150 C 836.0 226 844.0 246 806.0 226 C 898.0 246 903.0 268 872.0 246 C 950.0 274 950.0 296 926.0 271 C 995.0 302 998.0 328 972.0 299 C 1056.0 354 1058.0 384 1022.0 332 L 1058 572" fill="none" stroke="url(#gold)" stroke-width="10" stroke-linejoin="round" stroke-linecap="round"/>
<path d="M 142 572 L 142 384 C 142 384 144 354 178 332 C 202 328 205 302 228 299 C 250 296 250 274 274 271 C 297 268 302 246 328 246 C 356 246 364 226 394 226 C 434 226 552.0 168 600.0 150 C 648.0 168 766.0 226 600.0 150 C 836.0 226 844.0 246 806.0 226 C 898.0 246 903.0 268 872.0 246 C 950.0 274 950.0 296 926.0 271 C 995.0 302 998.0 328 972.0 299 C 1056.0 354 1058.0 384 1022.0 332 L 1058 572" fill="none" stroke="#8b6a33" stroke-width="2.2" stroke-linejoin="round" stroke-linecap="round" opacity=".75"/>
<g id="topFloral" stroke="#8f8758" stroke-width="3" fill="none" stroke-linecap="round">
<path d="M 164 232 C 194 159, 269 149, 565.0 178"/>
<path d="M 179 208 C 224 179, 284 180, 332 201"/>
<path d="M 1053 232 C 1023 159, 948 149, 635.0 178"/>
<path d="M 1038 208 C 993 179, 933 180, 885 201"/>
<path d="M 152 284 C 179 244, 199 229, 230 220"/>
<path d="M 1038 284 C 1011 244, 991 229, 960 220"/>
</g>
<g>
<use href="#flower5" transform="translate(179 172) rotate(0) scale(1)"/>
<use href="#flower5" transform="translate(236 192) rotate(15) scale(0.8)"/>
<use href="#flower5" transform="translate(294 184) rotate(-10) scale(0.9)"/>
<use href="#flower5" transform="translate(359 198) rotate(8) scale(0.85)"/>
<use href="#flower5" transform="translate(424 182) rotate(-12) scale(0.95)"/>
<use href="#flower5" transform="translate(565.0 166) rotate(0) scale(1.0)"/>
<use href="#flower5" transform="translate(600.0 154) rotate(0) scale(0.8)"/>
<use href="#flower5" transform="translate(635.0 166) rotate(0) scale(1.0)"/>
<use href="#flower5" transform="translate(758 182) rotate(12) scale(0.95)"/>
<use href="#flower5" transform="translate(823 198) rotate(-8) scale(0.85)"/>
<use href="#flower5" transform="translate(888 184) rotate(10) scale(0.9)"/>
<use href="#flower5" transform="translate(946 192) rotate(-15) scale(0.8)"/>
<use href="#flower5" transform="translate(1003 172) rotate(0) scale(1)"/>
<use href="#flower5" transform="translate(190 232) rotate(0) scale(0.85)"/>
<use href="#flower5" transform="translate(246 222) rotate(0) scale(0.75)"/>
<use href="#flower5" transform="translate(992 232) rotate(0) scale(0.85)"/>
<use href="#flower5" transform="translate(936 222) rotate(0) scale(0.75)"/>
<use href="#leafPair" transform="translate(204 179) rotate(12) scale(.7)"/>
<use href="#leafPair" transform="translate(264 206) rotate(110) scale(.7)"/>
<use href="#leafPair" transform="translate(329 180) rotate(35) scale(.7)"/>
<use href="#leafPair" transform="translate(387 201) rotate(140) scale(.7)"/>
<use href="#leafPair" transform="translate(456 192) rotate(20) scale(.7)"/>
<use href="#leafPair" transform="translate(978 179) rotate(168) scale(.7)"/>
<use href="#leafPair" transform="translate(918 206) rotate(70) scale(.7)"/>
<use href="#leafPair" transform="translate(853 180) rotate(145) scale(.7)"/>
<use href="#leafPair" transform="translate(795 201) rotate(40) scale(.7)"/>
<use href="#leafPair" transform="translate(726 192) rotate(160) scale(.7)"/>
<use href="#leafPair" transform="translate(169 246) rotate(25) scale(.7)"/>
<use href="#leafPair" transform="translate(219 234) rotate(125) scale(.7)"/>
<use href="#leafPair" transform="translate(1013 246) rotate(155) scale(.7)"/>
<use href="#leafPair" transform="translate(963 234) rotate(55) scale(.7)"/>
<use href="#bud" transform="translate(274 166) scale(.9)"/>
<use href="#bud" transform="translate(399 170) scale(.9)"/>
<use href="#bud" transform="translate(518.0 174) scale(.9)"/>
<use href="#bud" transform="translate(682.0 174) scale(.9)"/>
<use href="#bud" transform="translate(908 166) scale(.9)"/>
<use href="#bud" transform="translate(783 170) scale(.9)"/>
</g>
<g opacity=".9">
<use href="#flower5" transform="translate(124.0 108) scale(.42)"/>
<use href="#leafPair" transform="translate(110.0 110) rotate(20) scale(.24)"/>
<use href="#leafPair" transform="translate(138.0 110) rotate(160) scale(.24)"/>
<use href="#flower5" transform="translate(183.5 108) scale(.42)"/>
<use href="#leafPair" transform="translate(169.5 110) rotate(20) scale(.24)"/>
<use href="#leafPair" transform="translate(197.5 110) rotate(160) scale(.24)"/>
<use href="#flower5" transform="translate(243.0 108) scale(.42)"/>
<use href="#leafPair" transform="translate(229.0 110) rotate(20) scale(.24)"/>
<use href="#leafPair" transform="translate(257.0 110) rotate(160) scale(.24)"/>
<use href="#flower5" transform="translate(302.5 108) scale(.42)"/>
<use href="#leafPair" transform="translate(288.5 110) rotate(20) scale(.24)"/>
<use href="#leafPair" transform="translate(316.5 110) rotate(160) scale(.24)"/>
<use href="#flower5" transform="translate(362.0 108) scale(.42)"/>
<use href="#leafPair" transform="translate(348.0 110) rotate(20) scale(.24)"/>
<use href="#leafPair" transform="translate(376.0 110) rotate(160) scale(.24)"/>
<use href="#flower5" transform="translate(421.5 108) scale(.42)"/>
<use href="#leafPair" transform="translate(407.5 110) rotate(20) scale(.24)"/>
<use href="#leafPair" transform="translate(435.5 110) rotate(160) scale(.24)"/>
<use href="#flower5" transform="translate(481.0 108) scale(.42)"/>
<use href="#leafPair" transform="translate(467.0 110) rotate(20) scale(.24)"/>
<use href="#leafPair" transform="translate(495.0 110) rotate(160) scale(.24)"/>
<use href="#flower5" transform="translate(540.5 108) scale(.42)"/>
<use href="#leafPair" transform="translate(526.5 110) rotate(20) scale(.24)"/>
<use href="#leafPair" transform="translate(554.5 110) rotate(160) scale(.24)"/>
<use href="#flower5" transform="translate(600.0 108) scale(.42)"/>
<use href="#leafPair" transform="translate(586.0 110) rotate(20) scale(.24)"/>
<use href="#leafPair" transform="translate(614.0 110) rotate(160) scale(.24)"/>
<use href="#flower5" transform="translate(659.5 108) scale(.42)"/>
<use href="#leafPair" transform="translate(645.5 110) rotate(20) scale(.24)"/>
<use href="#leafPair" transform="translate(673.5 110) rotate(160) scale(.24)"/>
<use href="#flower5" transform="translate(719.0 108) scale(.42)"/>
<use href="#leafPair" transform="translate(705.0 110) rotate(20) scale(.24)"/>
<use href="#leafPair" transform="translate(733.0 110) rotate(160) scale(.24)"/>
<use href="#flower5" transform="translate(778.5 108) scale(.42)"/>
<use href="#leafPair" transform="translate(764.5 110) rotate(20) scale(.24)"/>
<use href="#leafPair" transform="translate(792.5 110) rotate(160) scale(.24)"/>
<use href="#flower5" transform="translate(838.0 108) scale(.42)"/>
<use href="#leafPair" transform="translate(824.0 110) rotate(20) scale(.24)"/>
<use href="#leafPair" transform="translate(852.0 110) rotate(160) scale(.24)"/>
<use href="#flower5" transform="translate(897.5 108) scale(.42)"/>
<use href="#leafPair" transform="translate(883.5 110) rotate(20) scale(.24)"/>
<use href="#leafPair" transform="translate(911.5 110) rotate(160) scale(.24)"/>
<use href="#flower5" transform="translate(957.0 108) scale(.42)"/>
<use href="#leafPair" transform="translate(943.0 110) rotate(20) scale(.24)"/>
<use href="#leafPair" transform="translate(971.0 110) rotate(160) scale(.24)"/>
<use href="#flower5" transform="translate(1016.5 108) scale(.42)"/>
<use href="#leafPair" transform="translate(1002.5 110) rotate(20) scale(.24)"/>
<use href="#leafPair" transform="translate(1030.5 110) rotate(160) scale(.24)"/>
<use href="#flower5" transform="translate(1076.0 108) scale(.42)"/>
<use href="#leafPair" transform="translate(1062.0 110) rotate(20) scale(.24)"/>
<use href="#leafPair" transform="translate(1090.0 110) rotate(160) scale(.24)"/>
<use href="#flower5" transform="translate(124.0 592) scale(.42)"/>
<use href="#leafPair" transform="translate(110.0 594) rotate(20) scale(.24)"/>
<use href="#leafPair" transform="translate(138.0 594) rotate(160) scale(.24)"/>
<use href="#flower5" transform="translate(183.5 592) scale(.42)"/>
<use href="#leafPair" transform="translate(169.5 594) rotate(20) scale(.24)"/>
<use href="#leafPair" transform="translate(197.5 594) rotate(160) scale(.24)"/>
<use href="#flower5" transform="translate(243.0 592) scale(.42)"/>
<use href="#leafPair" transform="translate(229.0 594) rotate(20) scale(.24)"/>
<use href="#leafPair" transform="translate(257.0 594) rotate(160) scale(.24)"/>
<use href="#flower5" transform="translate(302.5 592) scale(.42)"/>
<use href="#leafPair" transform="translate(288.5 594) rotate(20) scale(.24)"/>
<use href="#leafPair" transform="translate(316.5 594) rotate(160) scale(.24)"/>
<use href="#flower5" transform="translate(362.0 592) scale(.42)"/>
<use href="#leafPair" transform="translate(348.0 594) rotate(20) scale(.24)"/>
<use href="#leafPair" transform="translate(376.0 594) rotate(160) scale(.24)"/>
<use href="#flower5" transform="translate(421.5 592) scale(.42)"/>
<use href="#leafPair" transform="translate(407.5 594) rotate(20) scale(.24)"/>
<use href="#leafPair" transform="translate(435.5 594) rotate(160) scale(.24)"/>
<use href="#flower5" transform="translate(481.0 592) scale(.42)"/>
<use href="#leafPair" transform="translate(467.0 594) rotate(20) scale(.24)"/>
<use href="#leafPair" transform="translate(495.0 594) rotate(160) scale(.24)"/>
<use href="#flower5" transform="translate(540.5 592) scale(.42)"/>
<use href="#leafPair" transform="translate(526.5 594) rotate(20) scale(.24)"/>
<use href="#leafPair" transform="translate(554.5 594) rotate(160) scale(.24)"/>
<use href="#flower5" transform="translate(600.0 592) scale(.42)"/>
<use href="#leafPair" transform="translate(586.0 594) rotate(20) scale(.24)"/>
<use href="#leafPair" transform="translate(614.0 594) rotate(160) scale(.24)"/>
<use href="#flower5" transform="translate(659.5 592) scale(.42)"/>
<use href="#leafPair" transform="translate(645.5 594) rotate(20) scale(.24)"/>
<use href="#leafPair" transform="translate(673.5 594) rotate(160) scale(.24)"/>
<use href="#flower5" transform="translate(719.0 592) scale(.42)"/>
<use href="#leafPair" transform="translate(705.0 594) rotate(20) scale(.24)"/>
<use href="#leafPair" transform="translate(733.0 594) rotate(160) scale(.24)"/>
<use href="#flower5" transform="translate(778.5 592) scale(.42)"/>
<use href="#leafPair" transform="translate(764.5 594) rotate(20) scale(.24)"/>
<use href="#leafPair" transform="translate(792.5 594) rotate(160) scale(.24)"/>
<use href="#flower5" transform="translate(838.0 592) scale(.42)"/>
<use href="#leafPair" transform="translate(824.0 594) rotate(20) scale(.24)"/>
<use href="#leafPair" transform="translate(852.0 594) rotate(160) scale(.24)"/>
<use href="#flower5" transform="translate(897.5 592) scale(.42)"/>
<use href="#leafPair" transform="translate(883.5 594) rotate(20) scale(.24)"/>
<use href="#leafPair" transform="translate(911.5 594) rotate(160) scale(.24)"/>
<use href="#flower5" transform="translate(957.0 592) scale(.42)"/>
<use href="#leafPair" transform="translate(943.0 594) rotate(20) scale(.24)"/>
<use href="#leafPair" transform="translate(971.0 594) rotate(160) scale(.24)"/>
<use href="#flower5" transform="translate(1016.5 592) scale(.42)"/>
<use href="#leafPair" transform="translate(1002.5 594) rotate(20) scale(.24)"/>
<use href="#leafPair" transform="translate(1030.5 594) rotate(160) scale(.24)"/>
<use href="#flower5" transform="translate(1076.0 592) scale(.42)"/>
<use href="#leafPair" transform="translate(1062.0 594) rotate(20) scale(.24)"/>
<use href="#leafPair" transform="translate(1090.0 594) rotate(160) scale(.24)"/>
<use href="#flower5" transform="translate(108 118.0) scale(.38)"/>
<use href="#leafPair" transform="translate(111 130.0) rotate(90) scale(.2)"/>
<use href="#flower5" transform="translate(108 176.0) scale(.38)"/>
<use href="#leafPair" transform="translate(111 188.0) rotate(90) scale(.2)"/>
<use href="#flower5" transform="translate(108 234.0) scale(.38)"/>
<use href="#leafPair" transform="translate(111 246.0) rotate(90) scale(.2)"/>
<use href="#flower5" transform="translate(108 292.0) scale(.38)"/>
<use href="#leafPair" transform="translate(111 304.0) rotate(90) scale(.2)"/>
<use href="#flower5" transform="translate(108 350.0) scale(.38)"/>
<use href="#leafPair" transform="translate(111 362.0) rotate(90) scale(.2)"/>
<use href="#flower5" transform="translate(108 408.0) scale(.38)"/>
<use href="#leafPair" transform="translate(111 420.0) rotate(90) scale(.2)"/>
<use href="#flower5" transform="translate(108 466.0) scale(.38)"/>
<use href="#leafPair" transform="translate(111 478.0) rotate(90) scale(.2)"/>
<use href="#flower5" transform="translate(108 524.0) scale(.38)"/>
<use href="#leafPair" transform="translate(111 536.0) rotate(90) scale(.2)"/>
<use href="#flower5" transform="translate(108 582.0) scale(.38)"/>
<use href="#leafPair" transform="translate(111 594.0) rotate(90) scale(.2)"/>
<use href="#flower5" transform="translate(1092 118.0) scale(.38)"/>
<use href="#leafPair" transform="translate(1089 130.0) rotate(-90) scale(.2)"/>
<use href="#flower5" transform="translate(1092 176.0) scale(.38)"/>
<use href="#leafPair" transform="translate(1089 188.0) rotate(-90) scale(.2)"/>
<use href="#flower5" transform="translate(1092 234.0) scale(.38)"/>
<use href="#leafPair" transform="translate(1089 246.0) rotate(-90) scale(.2)"/>
<use href="#flower5" transform="translate(1092 292.0) scale(.38)"/>
<use href="#leafPair" transform="translate(1089 304.0) rotate(-90) scale(.2)"/>
<use href="#flower5" transform="translate(1092 350.0) scale(.38)"/>
<use href="#leafPair" transform="translate(1089 362.0) rotate(-90) scale(.2)"/>
<use href="#flower5" transform="translate(1092 408.0) scale(.38)"/>
<use href="#leafPair" transform="translate(1089 420.0) rotate(-90) scale(.2)"/>
<use href="#flower5" transform="translate(1092 466.0) scale(.38)"/>
<use href="#leafPair" transform="translate(1089 478.0) rotate(-90) scale(.2)"/>
<use href="#flower5" transform="translate(1092 524.0) scale(.38)"/>
<use href="#leafPair" transform="translate(1089 536.0) rotate(-90) scale(.2)"/>
<use href="#flower5" transform="translate(1092 582.0) scale(.38)"/>
<use href="#leafPair" transform="translate(1089 594.0) rotate(-90) scale(.2)"/>
</g>
<g transform="translate(112 112) scale(1 1)">
    <path d="M0,0 C12,0 20,8 20,20 C10,18 3,10 0,0Z" fill="#d8b86f"/>
    <path d="M3,3 C10,4 14,8 16,16" stroke="#8b6a33" stroke-width="1.5" fill="none"/>
    <use href="#flower5" transform="translate(9 9) scale(.22)"/>
    </g>
<g transform="translate(1088 112) scale(-1 1)">
    <path d="M0,0 C12,0 20,8 20,20 C10,18 3,10 0,0Z" fill="#d8b86f"/>
    <path d="M3,3 C10,4 14,8 16,16" stroke="#8b6a33" stroke-width="1.5" fill="none"/>
    <use href="#flower5" transform="translate(9 9) scale(.22)"/>
    </g>
<g transform="translate(112 588) scale(1 -1)">
    <path d="M0,0 C12,0 20,8 20,20 C10,18 3,10 0,0Z" fill="#d8b86f"/>
    <path d="M3,3 C10,4 14,8 16,16" stroke="#8b6a33" stroke-width="1.5" fill="none"/>
    <use href="#flower5" transform="translate(9 9) scale(.22)"/>
    </g>
<g transform="translate(1088 588) scale(-1 -1)">
    <path d="M0,0 C12,0 20,8 20,20 C10,18 3,10 0,0Z" fill="#d8b86f"/>
    <path d="M3,3 C10,4 14,8 16,16" stroke="#8b6a33" stroke-width="1.5" fill="none"/>
    <use href="#flower5" transform="translate(9 9) scale(.22)"/>
    </g>
</svg>